<svg xmlns="http://www.w3.org/2000/svg" version="1.1" xmlns:xlink="http://www.w3.org/1999/xlink" xmlns:svgjs="http://svgjs.dev/svgjs" viewBox="0 0 800 800"><defs><linearGradient x1="50%" y1="0%" x2="50%" y2="100%" id="wwwhirl-grad"><stop stop-color="hsl(206, 75%, 49%)" stop-opacity="1" offset="45%"></stop><stop stop-color="hsl(331, 90%, 56%)" stop-opacity="1" offset="100%"></stop></linearGradient></defs><g stroke-width="2" stroke="hsl(32, 0%, 0%)" fill="none" stroke-linecap="round"><path d="M37.00000251770027 424.7472244476319C50.75000289917 413.6097241386414 75.50000358581553 369.01847290153506 103.000004348755 371.28722296447756C130.50000511169446 373.55597302742007 141.5000054168703 435.01847473258977 169.00000617980973 435.63722474975594C196.5000069427492 436.25597476692207 207.50000724792503 378.1759731555939 235.00000801086446 374.257223046875C262.500008773804 370.33847293815614 273.5000090789798 420.3334743251801 301.0000098419193 416.82722422790533C328.50001060485874 413.32097413063053 339.5000109100345 352.0647224311829 367.000011672974 357.42722257995604C394.50001243591345 362.78972272872926 405.5000127410893 435.5547247474671 433.0000135040287 442.56722494201665C460.5000142669682 449.57972513656625 471.50001457214404 390.46847349662784 499.0000153350834 391.08722351379396C526.5000160980228 391.70597353096014 537.5000164031987 452.75597522468576 565.0000171661382 445.53722502441417C592.5000179290777 438.3184748241425 603.5000182342535 356.0247225410461 631.000018997193 356.43722255249025C658.5000197601325 356.84972256393434 669.5000200653083 448.34222510223395 697.0000208282477 447.5172250793458C724.5000215911871 446.6922250564576 749.2500222778326 372.2772229919434 763.0000226593024 352.47722244262695 " transform="rotate(99, 400, 400)"></path><path d="M48.00000244140632 423.9973298251066C61.33333614464971 413.19732952547946 85.3333368104878 369.95732832586117 112.00000421697456 372.1573283868963C138.6666716234613 374.3573284479315 149.33333858605602 433.9573301014294 176.00000599254278 434.55733011807536C202.66667339902952 435.1573301347213 213.33334036162427 378.8373285722213 240.000007768111 375.0373284667969C266.6666751745978 371.23732836137253 277.3333421371925 419.7173297063655 304.00000954367925 416.3173296120384C330.66667695016605 412.9173295177113 341.3333439127607 353.5173278697621 368.00001131924745 358.717328014027C394.66667872573424 363.9173281582919 405.33334568832896 434.47733011585586 432.00001309481576 441.27733030451003C458.66668050130244 448.07733049316414 469.3333474638972 390.75732890292085 496.0000148703839 391.3573289195668C522.6666822768707 391.9573289362127 533.3333492394653 451.15733057861337 560.0000166459522 444.1573303844106C586.666684052439 437.1573301902078 597.3333510150337 357.3573279762962 624.0000184215204 357.75732798739347C650.6666858280073 358.15732799849076 661.3333527906019 446.87733045987227 688.0000201970887 446.07733043767763C714.6666876035754 445.277330415483 738.6666882694134 373.11732841352983 752.0000219726569 353.9173278808594 " transform="rotate(96, 400, 400)"></path><path d="M59.00000236511238 423.2474008703059C71.9166693901294 412.7849005800421 95.16667003516005 370.8961494179119 121.00000408519412 373.0273994770397C146.83333813522813 375.1586495361675 157.1666717552418 432.89615113799357 183.0000058052758 433.4774011541194C208.83333985530987 434.0586511702451 219.1666734753235 379.4986496565732 245.00000752535757 375.8173995544434C270.8333415753916 372.13614945231353 281.1666751954052 419.10115075527546 307.0000092454393 415.8074006638961C332.83334329547336 412.5136505725167 343.16667691548696 354.9698989760659 369.00001096552097 360.0073991158225C394.83334501555504 365.0448992555792 405.1666786355687 433.3999011519693 431.0000126856027 439.98740133472796C456.8333467356368 446.57490151748664 467.16668035565044 391.04614997693847 493.0000144056845 391.6273999930642C518.8333484557185 392.20865000918997 529.1666820757321 449.5586516002656 555.0000161257661 442.77740141213167C580.8333501758003 435.9961512239977 591.1666837958139 358.6898990792708 617.000017845848 359.0773990900213C642.8333518958821 359.46489910077185 653.1666855158957 445.41240148523514 679.0000195659296 444.6374014637341C704.8333536159636 443.8624014422331 728.0833542609943 373.95739950284093 741.0000212860114 355.3573989868164 " transform="rotate(93, 400, 400)"></path><path d="M70.00000228881842 422.497483359597C82.50000263560909 412.3724830786965 105.00000325983231 371.8349819540544 130.00000395341365 373.89748201127486C155.00000464699497 375.9599820684953 165.00000492442751 431.83498361864963 190.00000561800886 432.3974836342552C215.0000063115902 432.95998364986076 225.00000658902275 380.159982185017 250.00000728260406 376.5974820861817C275.00000797618543 373.0349819873463 285.000008253618 418.4849832482772 310.0000089471993 415.29748315984557C335.00000964078066 412.1099830714139 345.00000991821315 356.4224815264615 370.0000106117945 361.29748166170987C395.00001130537584 366.1724817969582 405.0000115828084 432.32248363217445 430.0000122763897 438.6974838090377C455.000012969971 445.07248398590093 465.0000132474036 391.3349824950478 490.00001394098496 391.89748251065345C515.0000146345662 392.459982526259 525.0000149119987 447.9599840660096 550.0000156055801 441.39748388394446C575.0000162991615 434.8349837018794 585.000016576594 360.02248162633725 610.0000172701755 360.39748163674096C635.0000179637568 360.7724816471447 645.0000182411893 443.9474839546898 670.0000189347705 443.1974839338823C695.0000196283519 442.4474839130749 717.5000202525752 374.7974820362438 730.0000205993658 356.79748153686523 " transform="rotate(90, 400, 400)"></path><path d="M81.00000221252448 421.74755821949356C93.08333588108879 411.9600579479565 114.83333648450457 372.7738068608024 139.0000038216332 374.7675569161155C163.1666711587618 376.7613069714286 172.83333809361326 430.7738084699111 197.0000054307419 431.31755848499654C221.16667276787052 431.8613085000819 230.833339702722 380.82130708406623 255.00000703985063 377.3775569885254C279.16667437697924 373.9338068929846 288.83334131183074 417.86880811188445 313.00000864895935 414.7875580264005C337.16667598608797 411.70630794091664 346.8333429209394 357.8750564474626 371.000010258068 362.5875565782027C395.16667759519663 367.30005670894275 404.8333445300481 431.2450584829851 429.00001186717674 437.40755865395295C453.16667920430535 443.57005882492075 462.8333461391569 391.6238073837627 487.00001347628546 392.16755739884815C511.1666808134141 392.7113074139335 520.8333477482655 446.3613089023591 545.0000150853941 440.01755872636284C569.1666824225229 433.6738085503666 578.8333493573742 361.35505654400913 603.000016694503 361.71755655406605C627.1666840316316 362.08005656412297 636.8333509664831 442.48255879474993 661.0000183036116 441.7575587746361C685.1666856407402 441.0325587545222 706.9166862441559 375.6375569402521 719.0000199127203 358.23755645751953 " transform="rotate(87, 400, 400)"></path><path d="M92.00000213623053 420.99764452348194C103.6666691265685 411.54764426130816 124.66666970917683 373.7126432116422 148.00000368985275 375.6376432650479C171.33333767052864 377.5626433184537 180.666671262799 429.7126447652644 204.00000524347493 430.23764477982957C227.33333922415085 430.7626447943948 236.66667281642125 381.4826434272073 260.00000679709717 378.15764333496094C283.33334077777306 374.83264324271465 292.66667437004344 417.2526444195835 316.0000083507193 414.27764433704726C339.3333423313953 411.30264425451105 348.66667592366565 359.3276428125555 372.00000990434154 363.8776429387873C395.3333438850174 368.4276430650191 404.6666774772878 430.1676447778876 428.00001145796375 436.11764494295994C451.3333454386397 442.0676451080323 460.6666790309101 391.9126437165694 484.000013011586 392.4376437311346C507.33334699226185 392.96264374569984 516.6666805845323 444.7626451828004 540.0000145652082 438.6376450128729C563.3333485458841 432.5126448429455 572.6666821381544 362.6876429057728 596.0000161188304 363.03764291548293C619.3333500995063 363.38764292519306 628.6666836917767 441.01764507890186 652.0000176724526 440.3176450594816C675.3333516531285 439.6176450400613 696.3333522357368 376.4776432883523 708.0000192260748 359.6776428222656 " transform="rotate(84, 400, 400)"></path><path d="M103.00000205993659 420.2477308274703C114.25000237204819 411.1352305746599 134.5000029338491 374.651479562482 157.00000355807228 376.5077296139804C179.50000418229547 378.3639796654788 188.5000044319848 428.6514810606177 211.00000505620795 429.1577310746627C233.50000568043117 429.6639810887077 242.50000593012047 382.1439797703483 265.0000065543437 378.9377296813965C287.5000071785669 375.7314795924447 296.5000074282562 416.6364807272825 319.0000080524794 413.767730647694C341.5000086767026 410.89898056810557 350.50000892639184 360.7802291776484 373.00000955061506 365.1677292993719C395.5000101748383 369.5552294210954 404.5000104245276 429.09023107279 427.00001104875076 434.82773123196694C449.500011672974 440.56523139114387 458.5000119226633 392.2014800493761 481.00001254688647 392.7077300634211C503.50001317110963 393.21398007746615 512.5000134207988 443.1639814632416 535.0000140450221 437.25773129938307C557.5000146692455 431.35148113552447 566.5000149189347 364.02022926753654 589.0000155431579 364.3577292768999C611.5000161673811 364.6952292862632 620.5000164170704 439.5527313630538 643.0000170412935 438.8777313443271C665.5000176655168 438.20273132560044 685.7500182273176 377.31772963645244 697.0000185394292 361.1177291870117 " transform="rotate(81, 400, 400)"></path><path d="M114.00000198364263 419.4978323902477C124.83333561752788 410.72283214680067 144.33333615852135 375.59033117211084 166.0000034262918 377.3778312217019C187.6666706940623 379.165331271293 196.3333376011705 427.59033261476003 218.000004868941 428.07783262828485C239.6666721367115 428.5653326418097 248.3333390438197 382.8053313722784 270.0000063115902 379.7178312866211C291.6666735793607 376.63033120096384 300.33334048646896 416.0203322937706 322.0000077542394 413.2578322171298C343.6666750220099 410.4953321404891 352.3333419291181 362.2328308015303 374.0000091968886 366.4578309187456C395.6666764646591 370.6828310359608 404.3333433717673 428.01283262648155 426.0000106395378 433.537832779763C447.66667790730827 439.0628329330445 456.3333448144165 392.4903316409718 478.00001208218697 392.97783165449664C499.66667934995746 393.46533166802146 508.33334625706556 441.565333002472 530.0000135248362 435.87783284468225C551.6666807926067 430.1903326868925 560.3333476997147 365.3528308880893 582.0000149674854 365.6778308971058C603.6666822352558 366.00283090612237 612.3333491423641 438.08783290599484 634.0000164101345 437.4378328879617C655.666683677905 436.7878328699286 675.1666842188985 378.15783124334166 686.0000178527837 362.5578308105469 " transform="rotate(78, 400, 400)"></path><path d="M125.00000190734869 418.74790343544703C135.41666886300757 410.31040320136333 154.1666693831936 376.52915226416155 175.00000329451137 378.2479023118453C195.83333720582914 379.966652359529 204.16667077035626 426.52915365132424 225.00000468167406 426.9979036643289C245.83333859299182 427.4666536773335 254.16667215751897 383.46665245663036 275.00000606883674 380.4979023742676C295.8333399801545 377.5291522919048 304.16667354468166 415.40415334268056 325.0000074559994 412.7479032689875C345.8333413673172 410.0916531952945 354.16667493184434 363.68540190783415 375.00000884316205 367.7479020205411C395.8333427544799 371.8104021332481 404.166676319007 426.9354036625949 425.0000102303248 432.2479038099809C445.83334414164256 437.560403957367 454.1666777061697 392.77915271498944 475.0000116174875 393.2479027279941C495.83334552880524 393.7166527409987 504.1666790933323 439.9666540241242 525.0000130046501 434.4979038724033C545.8333469159679 429.02915372068236 554.166680480495 366.6854019910639 575.0000143918128 366.99790199973364C595.8333483031306 367.31040200840346 604.1666818676579 436.6229039313577 625.0000157789755 435.99790391401814C645.8333496902933 435.3729038966786 664.5833502104794 378.9979023326527 675.0000171661382 363.9979019165039 " transform="rotate(75, 400, 400)"></path><path d="M136.00000183105476 417.99797448064635C146.00000210848728 409.897974255926 164.00000260786584 377.46797335621227 184.00000316273093 379.11797340198865C204.00000371759597 380.76797344776503 212.000003939542 425.46797468788844 232.00000449440708 425.9179747003729C252.00000504927215 426.3679747128574 260.0000052712182 384.12797354098234 280.0000058260833 381.2779734619141C300.0000063809483 378.4279733828458 308.00000660289436 414.7879743915905 328.00000715775946 412.2379743208452C348.00000771262455 409.6879742500999 356.00000793457053 365.13797301413797 376.0000084894356 369.03797312233667C396.00000904430067 372.93797323053536 404.0000092662467 425.8579746987083 424.0000098211118 430.9579748401989C444.0000103759769 436.05797498168954 452.0000105979229 393.06797378900706 472.000011152788 393.5179738014915C492.000011707653 393.96797381397596 500.00001192959905 438.3679750457764 520.0000124844642 433.11797490012435C540.0000130393292 427.86797475447224 548.0000132612753 368.01797309403855 568.0000138161404 368.3179731023615C588.0000143710055 368.6179731106845 596.0000145929514 435.1579749567206 616.0000151478165 434.55797494007464C636.0000157026815 433.95797492342865 654.00001620206 379.8379734219638 664.0000164794926 365.43797302246094 " transform="rotate(72, 400, 400)"></path><path d="M146.9999864959717 417.24806078463473C156.5833200951779 409.4855605692777 173.83332057374906 378.40680970705205 192.9999877721614 379.9880597509211C212.16665497057375 381.5693097947901 219.8333218499387 424.4068109832417 238.99998904835104 424.83806099520604C258.1666562467634 425.2693110071703 265.8333231261284 384.7893098841234 284.9999903245407 382.05805980834964C304.1666575229531 379.32680973257584 311.83332440231806 414.17181069928955 330.9999916007304 411.728060631492C350.1666587991428 409.28431056369436 357.83332567850766 366.59055937923085 376.99999287692003 370.3280594829213C396.1666600753324 374.06555958661164 403.8333269546974 424.7805609936108 422.99999415310975 429.6680611292059C442.1666613515221 434.5555612648011 449.83332823088705 393.35681012181374 468.9999954292994 393.788060133778C488.16666262771173 394.21931014574227 495.83332950707666 436.7693113262177 514.9999967054891 431.73806118663447C534.1666639039015 426.70681104705125 541.8333307832664 369.3505594558022 560.9999979816788 369.6380594637784C580.1666651800912 369.9255594717546 587.8333320594561 433.6930612408725 606.9999992578685 433.11806122492015C626.1666664562807 432.5430612089678 643.4166669348518 380.67805977006395 653.000000534058 366.87805938720703 " transform="rotate(69, 400, 400)"></path><path d="M157.99998641967778 416.4981566253663C167.1666533406576 409.0731564193726 183.6666537984213 379.345655594635 201.99998764038094 380.8581556365967C220.33332148234058 382.37065567855836 227.66665501912445 423.3456568153382 245.9999888610841 423.7581568267823C264.33332270304373 424.17065683822636 271.6666562398276 385.4506557640076 289.99999008178725 382.83815569152836C308.3333239237469 380.22565561904906 315.6666574605308 413.55565654373174 333.99999130249046 411.21815647888184C352.3333251444501 408.880656414032 359.6666586812339 368.0431552810669 377.99999252319355 371.61815538024905C396.3333263651532 375.19315547943114 403.6666599019371 423.70315682525637 421.99999374389677 428.3781569549561C440.3333275858564 433.0531570846558 447.6666611226403 393.6456559913635 465.9999949645999 394.05815600280766C484.3333288065595 394.47065601425174 491.6666623433434 435.1706571434022 509.9999961853031 430.35815700988775C528.3333300272627 425.54565687637336 535.6666635640465 370.68315535430906 553.9999974060063 370.95815536193845C572.3333312479659 371.2331553695679 579.6666647847499 432.22815706176766 597.9999986267094 431.67815704650883C616.3333324686689 431.12815703125005 632.8333329264326 381.5181556549072 641.9999998474125 368.3181552886963 " transform="rotate(66, 400, 400)"></path><path d="M168.99998634338385 415.74823339261144C177.7499865861373 408.66073319598115 193.49998702309355 380.28448240873166 210.9999875086005 381.72823244878595C228.4999879941074 383.1719824888403 235.49998818831023 422.2844835739483 252.99998867381714 422.6782335848722C270.49998915932406 423.0719835957961 277.49998935352687 386.1119825704055 294.9999898390338 383.6182325012207C312.4999903245407 381.12448243203596 319.4999905187435 412.9394833146876 336.99999100425043 410.7082332527855C354.49999148975735 408.4769831908833 361.49999168396016 369.4957321094166 378.9999921694671 372.9082322040905C396.49999265497405 376.3207322987643 403.4999928491768 422.6257335834157 420.9999933346837 427.08823370721996C438.4999938201907 431.5507338310242 445.4999940143935 393.93448278742704 462.9999944999004 394.32823279835094C480.4999949854073 394.7219828092749 487.4999951796101 433.57198388710026 504.99999566511707 428.9782337596547C522.4999961506239 424.38448363220914 529.4999963448267 372.01573217932963 546.9999968303338 372.27823218661223C564.4999973158407 372.5407321938948 571.4999975100434 430.7632338091764 588.9999979955503 430.2382337946112C606.4999984810572 429.713233780046 622.2499989180135 382.3582324662642 630.999999160767 369.7582321166992 " transform="rotate(63, 400, 400)"></path><path d="M179.9999862670899 414.9983177892512C188.33331983161702 408.24831760198424 203.3333202477658 381.2233168522228 219.99998737682003 382.59831689036974C236.66665450587425 383.97331692851674 243.33332135749595 421.22331796195294 259.9999884865502 421.59831797235665C276.6666556156044 421.97331798276036 283.33332246722614 386.77331700619783 299.99998959628033 384.3983169403076C316.6666567253345 382.0233168744174 323.3333235769563 412.323317715038 339.9999907060105 410.1983176560836C356.6666578350647 408.0733175971292 363.3333246866864 370.9483165671609 379.9999918157406 374.1983166573264C396.6666589447948 377.448316747492 403.33332579641655 421.5483179709695 419.9999929254708 425.7983180888783C436.666660054525 430.04831820678714 443.3333269061467 394.2233172128851 459.9999940352009 394.5983172232888C476.6666611642551 394.9733172336925 483.33332801587676 431.9733182601929 499.99999514493106 427.5983181388162C516.6666622739854 423.22331801743945 523.333329125607 373.3483166337447 539.9999962546613 373.5983166406805C556.6666633837156 373.8483166476163 563.3333302353371 429.2983181859797 579.9999973643913 428.7983181721081C596.6666644934455 428.29831815823644 611.6666649095944 383.19831690701574 619.9999984741214 371.1983165740967 " transform="rotate(60, 400, 400)"></path><path d="M190.99998619079594 414.2484117226341C198.9166530770967 407.8359115447305 213.16665347243807 382.1621608324571 228.99998724503956 383.46841086869676C244.83332101764108 384.77466090493635 251.1666545266817 420.16216188670074 266.99998829928325 420.51841189658427C282.8333220718847 420.87466190646785 289.16665558092535 387.4346609787334 304.99998935352687 385.1784109161377C320.83332312612833 382.922160853542 327.166656635169 411.70716165213156 342.9999904077705 409.68841159612487C358.833324180372 407.66966154011817 365.1666576894126 372.4009105616483 380.9999914620141 375.48841064730556C396.8333252346156 378.5759107329629 403.1666587436563 420.47091189526645 418.99999251625775 424.50841200727984C434.83332628885927 428.54591211929323 441.1666597978999 394.5121611750863 456.99999357050143 394.86841118496983C472.8333273431029 395.22466119485335 479.1666608521435 430.3746621700287 494.99999462474506 426.21841205472083C510.8333283973466 422.06216193941293 517.1666619063872 374.6809106249029 532.9999956789886 374.91841063149195C548.8333294515903 375.15591063808097 555.1666629606309 427.8334120995262 570.9999967332324 427.35841208634815C586.8333305058338 426.8834120731701 601.0833309011753 384.0384108845104 608.9999977874759 372.6384105682373 " transform="rotate(57, 400, 400)"></path><path d="M201.999986114502 413.4984961192738C209.49998632257638 407.4234959507336 222.99998669711033 383.10099527594826 237.99998711325912 384.33849531028056C252.99998752940792 385.5759953446128 258.99998769586745 419.1009962747054 273.99998811201624 419.4384962840688C288.9999885281651 419.7759962934321 294.99998869462456 388.0959954145258 309.9999891107734 385.9584953552246C324.9999895269222 383.8209952959234 330.99998969338174 411.09099605248196 345.99999010953053 409.178495999423C360.9999905256793 407.265995946364 366.9999906921388 373.85349501939254 381.99999110828765 376.77849510054153C396.99999152443644 379.7034951816906 402.99999169089597 419.3934962828203 417.99999210704476 423.21849638893826C432.99999252319355 427.0434964950562 438.99999268965314 394.80099560054435 453.99999310580193 395.1384956099077C468.9999935219507 395.47599561927103 474.9999936884102 428.7759965431214 489.99999410455905 424.8384964338823C504.9999945207079 420.90099632464324 510.9999946871674 376.013495079318 525.9999951033162 376.2384950855602C540.9999955194651 376.46349509180243 546.9999956859245 426.3684964763295 561.9999961020733 425.91849646384503C576.9999965182221 425.4684964513606 590.499996892756 384.8784953252619 597.9999971008303 374.07849502563477 " transform="rotate(54, 400, 400)"></path><path d="M212.99998603820805 412.7485709791704C220.08331956805608 407.0110708199935 232.8333199217826 384.03982018269625 246.99998698147868 385.2085702151212C261.16665404117475 386.3773202475461 266.8333208650532 418.0398211259669 280.9999879247493 418.35857113481006C295.16665498444536 418.6773211436532 300.83332180832383 388.75732031357506 314.99998886801995 386.73857025756837C329.166655927716 384.7198202015617 334.83332275159444 410.4748209160892 348.99998981129056 408.6685708659779C363.1666568709866 406.86232081586667 368.83332369486504 375.3060699403936 382.99999075456117 378.06857001703435C397.16665781425723 380.83107009367507 402.8333246381357 418.31607113363094 416.9999916978318 421.92857123385346C431.1666587575279 425.541071334076 436.8333255814063 395.08982048925924 450.99999264110244 395.4085704981024C465.1666597007985 395.72732050694555 470.8333265246769 427.17732137947087 484.99999358437304 423.45857127630063C499.16666064406917 419.7398211731304 504.8333274679476 377.34606999698985 518.9999945276437 377.5585700028853C533.1666615873398 377.7710700087807 538.8333284112182 424.9035713163896 552.9999954709143 424.47857130459874C567.1666625306103 424.0535712928079 579.9166628843368 385.71857022927026 586.9999964141849 375.51856994628906 " transform="rotate(51, 400, 400)"></path><path d="M223.9999859619141 411.99864965376423C230.6666528135358 406.59864950395064 242.66665314645485 384.9786489041415 255.99998684969822 386.0786489346591C269.3333205529416 387.17864896517665 274.66665403423895 416.97864979192565 287.99998773748234 417.2786498002486C301.3333214407257 417.5786498085716 306.6666549220231 389.4186490273216 319.99998862526644 387.5186489746094C333.33332232850984 385.6186489218972 338.6666558098072 409.8586495943937 351.99998951305054 408.15864954723014C365.33332321629393 406.4586495000666 370.6666566975913 376.758648676092 383.9999904008347 379.3586487482244C397.3333241040781 381.95864882035687 402.66665758537545 417.2386497991389 415.99999128861884 420.6386498934659C429.3333249918621 424.038649987793 434.66665847315954 395.37864919267133 447.9999921764029 395.67864920099436C461.3333258796463 395.9786492093173 466.6666593609436 425.5786500305176 479.99999306418704 422.0786499334162C493.33332676743044 418.57864983631487 498.6666602487278 378.678648729359 511.99999395197113 378.87864873490764C525.3333276552146 379.07864874045634 530.666661136512 423.4386499711471 543.9999948397553 423.0386499600497C557.3333285429986 422.63864994895243 569.3333288759177 386.5586489479759 575.9999957275394 376.9586486816406 " transform="rotate(48, 400, 400)"></path><path d="M234.99998588562016 411.24873786510125C241.2499860590155 406.186237724651 252.49998637112708 385.91748716232996 264.99998671791775 386.94873719094016C277.4999870647084 387.9799872195504 282.49998720342467 415.91748799462755 294.99998755021534 416.19873800243033C307.499987897006 416.4799880102331 312.4999880357223 390.07998727781126 324.999988382513 388.2987372283936C337.49998872930365 386.5174871789759 342.49998886801995 409.24248780944134 354.9999892148106 407.6487377652255C367.4999895616013 406.0549877210097 372.49998970031754 378.2112369485335 384.9999900471082 380.64873701615767C397.4999903938989 383.08623708378184 402.49999053261513 416.16123800138996 414.9999908794058 419.3487380898216C427.49999122619647 422.5362381782532 432.4999913649127 395.66748743282665 444.9999917117034 395.94873744062943C457.49999205849406 396.2299874484322 462.4999921972103 423.97998821830754 474.999992544001 420.69873812727496C487.4999928907917 417.41748803624245 492.49999302950795 380.01123699847136 504.9999933762987 380.1987370036732C517.4999937230893 380.38623700887507 522.4999938618056 421.97373816264763 534.9999942085963 421.5987381522439C547.4999945553868 421.22373814184016 558.7499948674986 387.3987372034246 564.9999950408939 378.39873695373535 " transform="rotate(45, 400, 400)"></path><path d="M245.9999858093262 410.4988298911355C251.83331930449518 405.7738297600486 262.33331959579937 386.85632923521564 273.9999865861373 387.8188292619185C285.66665357647526 388.7813292886214 290.33332037261044 414.8563300120267 301.9999873629484 415.1188300193093C313.6666543532864 415.3813300265919 318.3333211494216 390.74132934299814 329.9999881397595 389.078829296875C341.66665513009747 387.41632925075186 346.33332192623266 408.62632983918627 357.9999889165706 407.13882979791816C369.66665590690855 405.65132975665006 374.3333227030438 379.6638290356723 385.99998969338174 381.9388290987882C397.6666566837197 384.2138291619041 402.3333234798548 415.0838300183383 413.9999904701928 418.0588301008745C425.6666574605308 421.03383018341066 430.33332425666595 395.9563294876792 441.99999124700395 396.2188294949618C453.66665823734184 396.4813295022444 458.3333250334771 422.3813302207947 469.999992023815 419.318830135831C481.66665901415297 416.2563300508673 486.33332581028816 381.34382908228093 497.99999280062616 381.518829087136C509.6666597909641 381.69382909199106 514.3333265870992 420.50883016884546 525.9999935774372 420.15883015913533C537.6666605677751 419.8088301494252 548.1666608590793 388.2388292735707 553.9999943542483 379.83882904052734 " transform="rotate(42, 400, 400)"></path><path d="M256.99998573303225 409.7489085657293C262.41665254997486 405.3614084440058 272.1666528204716 387.7951579566609 282.9999864543569 388.6889079814564C293.8333200882421 389.58265800625196 298.1666535417962 413.79515867798546 308.99998717568144 414.03890868474787C319.83332080956666 414.28265869151033 324.1666542631208 391.40265805674466 334.999987897006 389.858908013916C345.8333215308913 388.3151579710874 350.1666549844454 408.01015851749077 360.99998861833063 406.6289084791704C371.8333222522159 405.24765844085 376.16665570577 381.11640777137063 386.99998933965526 383.22890782997825C397.8333229735405 385.3414078885859 402.1666564270946 414.00640868384625 412.9999900609798 416.76890876048697C423.83332369486504 419.53140883712774 428.1666571484192 396.2451581910914 438.9999907823044 396.4889081978538C449.83332441618967 396.7326582046162 454.16665786974374 420.7826588718415 464.999991503629 417.93890879294656C475.8333251375143 415.0951587140517 480.1666585910683 382.67640781465013 490.99999222495364 382.8389078191584C501.83332585883886 383.0014078236667 506.166659312393 419.04390882360286 516.9999929462782 418.7189088145863C527.8333265801634 418.39390880556977 537.5833268506601 389.0789079922763 542.9999936676028 381.2789077758789 " transform="rotate(39, 400, 400)"></path><path d="M267.9999856567383 408.99899105502044C272.99998579545456 404.94899094266026 281.9999860451438 388.7339904928034 291.99998632257643 389.55899051569156C301.9999866000089 390.3839905385798 305.99998671098194 412.7339911586415 315.9999869884145 412.95899116488374C325.99998726584704 413.18399117112597 329.99998737682006 392.06399058518844 339.99998765425255 390.6389905456543C349.9999879316851 389.2139905061202 353.9999880426581 407.3939910104925 363.99998832009067 406.11899097511986C373.9999885975232 404.84399093974724 377.9999887084962 382.56899032176625 387.9999889859287 384.5189903758656C397.9999892633613 386.46899042996495 401.9999893743343 412.9289911640514 411.99998965176684 415.4789912347967C421.9999899291994 418.02899130554204 425.9999900401724 396.5339907092008 435.9999903176049 396.758990715443C445.99999059503745 396.98399072168525 449.99999070601046 419.1839913375855 459.999990983443 416.5589912647594C469.99999126087556 413.9339911919334 473.9999913718486 384.00899036171654 483.9999916492811 384.158990365878C493.9999919267137 384.3089903700395 497.99999203768664 417.5789912930576 507.9999923151192 417.27899128473456C517.9999925925517 416.9789912764116 526.999992842241 389.91899052567913 531.9999929809572 382.71899032592773 " transform="rotate(36, 400, 400)"></path><path d="M279.0000008392334 408.24907831268314C283.58333429972333 404.5365782096863 291.8333345286052 389.6728277973175 301.000001449585 390.42907781829837C310.1666683705648 391.1853278392792 313.8333351389567 411.6728284076691 323.0000020599366 411.87907841339114C332.16666898091637 412.0853284191132 335.83333574930833 392.7253278820038 345.00000267028815 391.41907784576415C354.166669591268 390.11282780952456 357.83333635965994 406.77782827186587 367.00000328063976 405.6090782394409C376.1666702016196 404.440328207016 379.8333369700115 384.02157764053345 389.0000038909913 385.8090776901245C398.16667081197113 387.5965777397156 401.8333375803631 411.8515784126282 411.0000045013429 414.18907847747806C420.16667142232274 416.5265785423279 423.8333381907147 396.8228279956818 433.00000511169446 397.02907800140383C442.1666720326743 397.2353280071259 445.83333880106625 417.5853285717011 455.00000572204607 415.17907850494385C464.1666726430259 412.77282843818665 467.8333394114178 385.34157767715453 477.0000063323977 385.4790776809692C486.1666732533775 385.6165776847839 489.83334002176946 416.11407853088383 499.0000069427492 415.83907852325444C508.166673863729 415.564078515625 516.4166740926108 390.7590778274536 521.0000075531008 384.15907764434814 " transform="rotate(33, 400, 400)"></path><path d="M290.00000076293946 407.49916270932283C294.16666754520304 404.1241626156894 301.66666775327747 390.61166224080864 310.00000131780456 391.29916225988217C318.33333488233166 391.98666227895563 321.6666683081425 410.61166279567374 330.0000018726696 410.7991628008756C338.33333543719675 410.98666280607745 341.6666688630076 393.3866623177962 350.0000024275347 392.19916228485107C358.3333359920618 391.011662251906 361.66666941787264 406.16166267221627 370.0000029823998 405.09916264273903C378.3333365469269 404.03666261326185 381.66666997273774 385.4741620982777 390.00000353726483 387.0991621433605C398.3333371017919 388.7241621884433 401.66667052760283 410.774162800182 410.0000040921299 412.8991628591364C418.333337656657 415.02416291809084 421.6666710824679 397.11166242113984 430.00000464699497 397.2991624263417C438.3333382115221 397.48666243154355 441.6666716373329 415.98666294479375 450.00000520186006 413.7991628841054C458.3333387663872 411.61166282341696 461.666672192198 386.6741621315696 470.00000575672516 386.79916213503753C478.3333393212523 386.92416213850544 481.6666727470631 414.6491629076871 490.0000063115902 414.3991629007513C498.3333398761173 414.1491628938155 505.8333400841917 391.59916226820513 510.00000686645524 385.5991621017456 " transform="rotate(30, 400, 400)"></path><path d="M301.00000068664554 406.7492432912653C304.75000079068275 403.7117432069952 311.5000009779497 391.5504928696025 319.00000118602406 392.1692428867687C326.5000013940985 392.7879929039348 329.5000014773283 409.5504933689811 337.00000168540265 409.7192433736628C344.5000018934771 409.88799337834445 347.5000019767068 394.04799293889135 355.00000218478124 392.9792429092407C362.50000239285566 391.91049287959015 365.5000024760854 405.5454932578694 373.00000268415977 404.5892432313399C380.5000028922342 403.6329932048104 383.50000297546393 386.9267427413247 391.00000318353835 388.3892427818992C398.5000033916127 389.8517428224737 401.5000034748425 409.69674337303854 409.00000368291694 411.6092434260975C416.5000038909913 413.5217434791565 419.5000039742211 397.40049303190057 427.00000418229547 397.56924303658224C434.5000043903699 397.73799304126396 437.50000447359963 414.38799350318914 445.00000468167406 412.41924344856955C452.5000048897485 410.45049339395007 455.5000049729782 388.0067427712874 463.00000518105264 388.1192427744085C470.50000538912707 388.23174277752963 473.5000054723568 413.18424346979316 481.0000056804312 412.95924346355093C488.5000058885056 412.7342434573087 495.25000607577255 392.4392428942594 499.0000061798097 387.0392427444458 " transform="rotate(27, 400, 400)"></path><path d="M312.00000061035155 405.9993286415794C315.33333403616246 403.2993285666726 321.3333342026219 392.48932826676804 328.0000010542436 393.0393282820268C334.6666679058653 393.5893282972856 337.333334646514 408.48932871066006 344.0000014981357 408.63932871482154C350.6666683497574 408.7893287189831 353.3333350904061 394.709328328358 360.0000019420278 393.75932830200196C366.6666687936495 392.80932827564584 369.33333553429816 404.9293286118941 376.0000023859198 404.07932858831236C382.6666692375415 403.22932856473057 385.3333359781902 388.37932815274326 392.0000028298119 389.6793281888095C398.6666696814336 390.9793282248757 401.33333642208225 408.6193287142667 408.00000327370395 410.31932876143026C414.6666701253256 412.01932880859374 417.3333368659743 397.68932841103293 424.000003717596 397.8393284151944C430.6666705692177 397.9893284193559 433.33333730986635 412.78932882995605 440.00000416148805 411.0393287814054C446.66667101310975 409.2893287328547 449.3333377537584 389.33932817937676 456.0000046053801 389.4393281821511C462.6666714570018 389.5393281849254 465.3333381976505 411.7193288002708 472.0000050492722 411.5193287947221C478.66667190089385 411.3193287891735 484.6666720673534 393.2793282886852 488.0000054931642 388.4793281555176 " transform="rotate(24, 400, 400)"></path><path d="M323.0000005340576 405.2494158992421C325.9166672816421 402.88691583369865 331.1666674272942 393.42816557128214 337.0000009224632 393.90941558463356C342.83333441763216 394.390665597985 345.1666678156997 407.4281659596877 351.0000013108687 407.559415963329C356.8333348060377 407.6906659669703 359.16666820410535 395.3706656251734 365.0000016992743 394.53941560211183C370.8333351944433 393.7081655790502 373.16666859251086 404.31316587326745 379.00000208767983 403.56941585263337C384.8333355828488 402.82566583199934 387.1666689809164 389.83191547151046 393.0000024760854 390.9694155030684C398.83333597125437 392.10691553462635 401.16666936932194 407.54191596284346 407.00000286449097 409.02941600411157C412.83333635965994 410.5169160453797 415.1666697577275 397.97816569751393 421.0000032528965 398.1094157011552C426.83333674806545 398.2406657047965 429.1666701461331 411.19066606407165 435.00000364130204 409.65941602158983C440.833337136471 408.12816597910796 443.16667053453864 390.6719154948148 449.0000040297076 390.75941549724234C454.8333375248766 390.8469154996699 457.16667092294415 410.2544160380971 463.0000044181131 410.07941603324196C468.8333379132821 409.9044160283869 474.0833380589342 394.11941559045965 477.0000048065187 389.919415473938 " transform="rotate(21, 400, 400)"></path><path d="M334.0000004577637 404.49949648118456C336.5000005271218 402.4744964250044 341.00000065196645 394.366996200076 346.00000079068275 394.7794962115201C351.000000929399 395.1919962229642 353.0000009848855 406.3669965329951 358.0000011236018 406.4794965361162C363.00000126231805 406.5919965392373 365.00000131780456 396.03199624626853 370.0000014565208 395.3194962265015C375.0000015952371 394.6069962067344 377.00000165072356 403.6969964589206 382.00000178943986 403.0594964412343C387.00000192815617 402.4219964235479 389.0000019836426 391.28449611455744 394.00000212235886 392.2594961416071C399.00000226107517 393.2344961686568 401.0000023165617 406.46449653570005 406.0000024552779 407.73949657107266C411.0000025939942 409.01449660644533 413.00000264948073 398.2669963082747 418.000002788197 398.3794963113958C423.0000029269132 398.49199631451694 425.0000029823998 409.59199662246704 430.00000312111604 408.27949658605405C435.0000032598323 406.966996549641 437.00000331531885 392.0044961345326 442.0000034540351 392.07949613661333C447.00000359275134 392.15449613869407 449.00000364823785 408.7894966002031 454.00000378695415 408.6394965960416C459.0000039256704 408.48949659188014 463.50000405051503 394.9594962165139 466.00000411987315 391.3594961166382 " transform="rotate(18, 400, 400)"></path><path d="M344.99999656677244 403.74957515577836C347.08332995790425 402.0620751089616 350.83333006194147 395.30582492152126 354.99999684420504 395.649574931058C359.16666362646856 395.9933249405948 360.833330339374 405.3058251989538 364.99999712163753 405.39957520155474C369.1666639039011 405.49332520415567 370.8333306168065 396.69332496001505 374.9999973990701 396.0995749435425C379.16666418133366 395.5058249270699 380.83333089423905 403.0808251372251 384.99999767650263 402.5495751224865C389.16666445876615 402.01832510774784 390.8333311716716 392.7370748502558 394.9999979539351 393.54957487279717C399.1666647361987 394.3620748953386 400.83333144910415 405.38707520120795 404.9999982313677 406.4495752306851C409.16666501363125 407.51207526016236 410.8333317265367 398.55582501168686 414.9999985088002 398.6495750142878C419.1666652910638 398.7433250168887 420.8333320039692 407.9933252735138 424.99999878623277 406.89957524316964C429.16666556849634 405.8058252128254 430.83333228140174 393.33707486690173 434.9999990636653 393.3995748686357C439.1666658459289 393.46207487036963 440.8333325588343 407.3245752549605 444.9999993410978 407.1995752514926C449.1666661233614 407.0745752480247 452.9166662273986 395.7995749352195 454.99999961853035 392.79957485198975 " transform="rotate(15, 400, 400)"></path><path d="M355.9999964904785 402.9996605060924C357.66666320338396 401.649660468639 360.6666632866137 396.2446603186867 363.99999671242455 396.51966032631617C367.3333301382354 396.79466033394556 368.66666350855974 404.24466054063276 371.9999969343706 404.3196605427135C375.33333036018144 404.39466054479425 376.6666637305058 397.3546603494818 379.9999971563166 396.8796603363037C383.3333305821275 396.40466032312565 384.6666639524518 402.4646604912498 387.9999973782626 402.0396604794589C391.3333308040735 401.61466046766805 392.66666417439785 394.18966026167436 395.99999760020864 394.83966027970746C399.33333102601955 395.4896602977406 400.6666643963439 404.30966054243606 403.9999978221547 405.15966056601786C407.33333124796553 406.0096605895996 408.6666646182899 398.84466039081923 411.9999980441007 398.91966039289997C415.33333146991157 398.9946603949807 416.6666648402359 406.39466060028076 419.99999826604676 405.51966057600544C423.3333316918576 404.64466055173006 424.66666506218195 394.66966027499114 427.9999984879928 394.7196602763783C431.33333191380365 394.76966027776547 432.666665284128 405.8596605854381 435.99999870993884 405.7596605826638C439.33333213574963 405.6596605798895 442.3333322189794 396.6396603296453 443.9999989318849 394.2396602630615 " transform="rotate(12, 400, 400)"></path><path d="M366.9999964141846 402.24974871742944C368.2499964488636 401.23724868933937 370.499996511286 397.1834985768752 372.9999965806441 397.38974858259724C375.49999665000223 397.5959985883193 376.49999667774546 403.18349874333467 378.99999674710364 403.2397487448952C381.49999681646176 403.2959987464558 382.49999684420504 398.01599859997145 384.9999969135631 397.6597485900879C387.4999969829213 397.30349858020435 388.4999970106645 401.84849870629745 390.9999970800227 401.5297486974543C393.4999971493808 401.21099868861114 394.49999717712404 395.6422485341159 396.99999724648217 396.1297485476407C399.49999731584035 396.6172485611655 400.4999973435836 403.2322487446872 402.9999974129417 403.8697487623735C405.4999974822998 404.5072487800598 406.4999975100431 399.1334986309745 408.9999975794012 399.18974863253504C411.49999764875935 399.2459986340956 412.49999767650263 404.7959987880707 414.99999774586075 404.1397487698642C417.4999978152189 403.4834987516577 418.49999784296216 396.00224854410345 420.9999979123203 396.0397485451438C423.4999979816784 396.0772485461842 424.4999980094217 404.3947487769387 426.9999980787798 404.31974877485794C429.49999814813793 404.2447487727772 431.74999821056025 397.4797485850941 432.99999824523934 395.67974853515625 " transform="rotate(9, 400, 400)"></path><path d="M378.0000001525879 401.49983502141777C378.8333335090406 400.8248350026911 380.3333335506555 398.122334927715 382.0000002635609 398.25983493152967C383.66666697646633 398.39733493534436 384.3333336616285 402.122335038688 386.0000003745339 402.15983503972836C387.66666708743935 402.19733504076873 388.3333337726015 398.67733494311244 390.0000004855069 398.4398349365234C391.66666719841237 398.2023349299344 392.33333388357454 401.2323350139965 394.00000059647994 401.01983500810104C395.6666673093854 400.8073350022056 396.33333399454756 397.09483489920876 398.00000070745295 397.4198349082253C399.6666674203584 397.74483491724186 400.3333341055206 402.1548350395896 402.000000818426 402.5798350513805C403.6666675313314 403.0048350631714 404.33333421649354 399.42233496378117 406.000000929399 399.45983496482154C407.66666764230445 399.4973349658619 408.33333432746656 403.19733506851196 410.000001040372 402.7598350563743C411.66666775327747 402.32233504423664 412.3333344384396 397.3348349058671 414.00000115134503 397.3598349065607C415.6666678642505 397.3848349072543 416.3333345494126 402.92983506109067 418.00000126231805 402.8798350597035C419.66666797522345 402.82983505831635 421.16666801683834 398.3198349331943 422.00000137329107 397.11983489990234 " transform="rotate(6, 400, 400)"></path><path d="M389.00000007629393 400.74991560336025C389.4166667545203 400.4124155939969 390.1666667753277 399.06116555650885 391.00000013178044 399.1299155584162C391.83333348823317 399.19866556032355 392.1666668308143 401.06116561199536 393.00000018726695 401.07991561251555C393.8333335437197 401.09866561303573 394.16666688630073 399.3386655642076 395.00000024275346 399.2199155609131C395.8333335992062 399.1011655576186 396.1666669417873 400.6161655996496 397.00000029823997 400.5099155967019C397.8333336546927 400.40366559375417 398.16666699727375 398.54741554225575 399.0000003537265 398.709915546764C399.8333337101792 398.8724155512723 400.16666705276026 401.0774156124462 401.000000409213 401.28991561834164C401.8333337656657 401.5024156242371 402.16666710824677 399.71116557454195 403.0000004646995 399.72991557506214C403.8333338211522 399.7486655755823 404.1666671637333 401.59866562690735 405.000000520186 401.3799156208385C405.83333387663873 401.1611656147697 406.1666672192198 398.66741554558496 407.0000005756725 398.67991554593175C407.83333393212524 398.69241554627854 408.1666672747063 401.4649156231967 409.000000631159 401.4399156225031C409.8333339876117 401.41491562180954 410.5833340084192 399.1599155592485 411.00000068664554 398.55991554260254 " transform="rotate(3, 400, 400)"></path></g></svg>